<svg width="1086" height="213" viewBox="0 0 1086 213" fill="none" xmlns="http://www.w3.org/2000/svg">
<g clip-path="url(#clip0_46_20)">
<path d="M453.943 168.641C461.473 169.171 470.373 161.751 470.153 152.521C469.863 140.341 470.023 87.5607 470.153 73.3607C470.173 70.9507 470.593 68.3308 471.633 66.2008C474.203 60.9708 480.023 58.1608 484.753 59.3508C490.913 60.9008 495.093 66.2208 495.113 72.8708L495.243 178.301C495.413 186.551 488.943 193.671 480.323 193.381C463.073 192.781 445.773 193.211 428.503 193.201C421.503 193.201 416.163 188.281 415.553 181.311C414.803 172.701 409.243 167.071 400.633 166.181C393.333 165.431 388.093 159.771 388.083 152.391C388.043 125.771 388.043 99.1408 388.083 72.5208C388.093 65.4208 394.023 59.0807 400.473 59.0007C407.113 58.9207 412.903 65.2707 412.903 72.7207C412.923 99.1107 413.323 125.501 412.903 151.881C412.773 160.201 420.163 169.261 429.463 168.621H453.943V168.641Z" fill="#262947"/>
<path d="M606.743 127.041C606.743 118.241 606.833 109.441 606.723 100.641C606.603 91.5709 599.823 84.9209 590.873 84.8909C582.543 84.8709 574.213 84.8609 565.883 84.8909C556.903 84.9209 550.013 91.6709 549.983 100.611C549.923 118.211 549.923 135.811 549.983 153.411C550.013 162.201 556.793 168.831 565.663 168.871C573.993 168.911 582.353 168.441 590.643 169.011C598.543 169.551 607.173 161.741 606.823 152.731C606.483 144.181 606.753 135.601 606.753 127.041M525.303 20.0809C525.303 13.5809 528.953 8.40094 534.613 6.68094C541.733 4.51094 549.783 10.5109 549.913 18.3009C550.063 26.8709 549.943 35.4409 549.963 44.0109C549.993 53.5409 556.613 60.2109 566.043 60.2309C574.263 60.2409 582.473 60.2009 590.693 60.2409C598.323 60.2809 603.663 65.3509 604.223 72.9809C604.763 80.4009 610.973 86.6509 618.613 87.4909C626.853 88.3909 631.503 93.4509 631.523 101.651C631.553 118.551 631.553 135.461 631.523 152.361C631.503 160.321 626.233 166.031 618.513 166.601C610.993 167.161 604.743 173.441 604.213 180.971C603.683 188.501 598.463 193.391 590.903 193.391C573.533 193.391 556.153 193.391 538.783 193.391C530.733 193.391 525.303 187.901 525.293 179.611C525.293 179.351 525.703 21.0109 525.703 21.0109" fill="#262947"/>
<path d="M981.863 73.5118C981.933 81.9518 976.423 86.5818 967.793 86.6718C960.203 86.7618 952.613 86.6218 945.023 86.7618C937.423 86.8918 931.823 90.9918 931.733 98.3818C931.583 110.642 931.343 134.692 931.343 134.692C931.343 149.652 931.753 164.612 931.733 179.562C931.733 187.252 925.673 193.392 918.673 193.382C911.603 193.382 906.123 187.352 906.113 179.502C906.093 161.312 906.163 110.462 906.083 103.242C905.983 93.9318 909.403 88.7218 918.993 86.2318C923.563 85.0418 929.443 79.9118 930.413 75.5818C932.653 65.6018 937.443 60.9218 946.003 60.4018C946.343 60.3818 968.883 60.5818 968.883 60.5818C976.763 61.0418 981.803 65.4818 981.873 73.5018" fill="#262947"/>
<path d="M317.783 99.7914C326.903 99.8214 333.343 105.861 334.113 115.011C334.913 124.631 342.363 132.041 351.913 132.731C359.643 133.281 366.753 140.301 366.773 147.381C366.793 154.561 359.483 161.751 351.613 162.291C342.193 162.951 334.893 170.171 334.103 179.621C333.353 188.711 327.163 194.391 318.003 194.401C318.003 194.401 258.173 194.401 255.483 194.401C246.923 194.401 239.413 187.571 239.453 179.861C239.493 172.261 247.053 165.121 255.533 165.061C272.283 164.941 313.963 165.081 318.053 165.061C326.553 165.011 334.193 159.381 336.423 151.621C338.473 144.471 335.343 136.571 328.093 132.111C325.593 130.571 322.373 129.561 319.453 129.471C309.323 129.151 299.183 129.371 289.043 129.341C279.293 129.321 272.943 123.441 272.193 113.811C271.503 104.931 263.673 97.3914 254.293 96.5414C246.233 95.8214 239.483 89.2114 239.463 82.0114C239.433 74.7714 246.023 68.2614 254.243 67.4014C264.653 66.3114 271.533 59.0714 272.223 48.5014C272.683 41.4914 279.443 34.8614 286.933 34.8014C308.613 34.6414 330.303 34.6014 351.983 34.8014C359.763 34.8714 367.093 42.7814 366.773 49.9314C366.433 57.3314 359.073 64.2314 351.143 64.2614C329.883 64.3414 308.623 64.2314 287.353 64.3114C275.763 64.3514 266.683 75.8314 269.723 86.3814C271.863 93.8014 279.533 99.6914 287.373 99.7514L317.783 99.7814V99.7914Z" fill="#262947"/>
<path d="M1063.94 155.651C1063.94 164.551 1056.72 171.771 1047.83 171.771H1016.7C1007.8 171.771 1000.58 164.551 1000.58 155.651V152.161C1000.58 143.261 1007.79 136.041 1016.7 136.041H1047.83C1056.73 136.041 1063.94 143.261 1063.94 152.161V155.651ZM994.003 114.671C985.613 114.721 978.842 121.601 978.952 130.021V154.091C978.932 159.981 983.672 167.351 990.072 167.931C998.602 168.711 1004.32 174.381 1005.01 182.721C1005.6 189.841 1012.27 193.201 1019.47 193.201C1036.57 193.201 1053.68 192.811 1070.76 193.381C1078.8 193.651 1085.54 186.841 1085.31 178.611L1085.21 102.021C1085.2 93.5411 1080.66 88.5211 1072.26 87.5811C1064.66 86.7311 1058.39 80.3711 1057.95 73.0711C1057.51 65.7411 1052.09 60.4711 1044.76 60.4111C1036.56 60.3411 1028.36 60.3711 1020.17 60.4111C1012.38 60.4411 1006.41 65.9011 1006.47 72.8811C1006.53 79.6511 1012.52 84.9711 1020.16 84.9911C1028.48 85.0111 1036.8 84.8511 1045.1 85.0811C1047.56 85.1511 1050.25 85.8311 1052.39 87.0211C1058.59 90.4911 1061.5 97.1511 1059.98 103.301C1058.43 109.561 1051.75 114.791 1044.9 114.881C1044.88 114.881 1044.87 114.881 1044.85 114.881L993.983 114.681L994.003 114.671Z" fill="#262947"/>
<path d="M698.013 113.011C691.683 112.491 685.683 107.651 683.953 101.641C681.353 92.6311 689.113 82.8211 699.013 82.7911C717.173 82.7311 735.333 82.8111 753.493 82.7511C760.263 82.7311 766.553 76.8411 766.843 70.5111C767.123 64.4011 760.853 57.6511 754.213 57.5811C735.693 57.4111 717.173 57.4311 698.653 57.5811C692.263 57.6311 686.483 63.3011 686.093 69.2911C685.503 78.3211 679.623 84.5011 670.733 85.4311C663.713 86.1711 658.083 91.7311 658.113 97.9111V121.351C658.113 130.701 665.693 138.291 675.043 138.301C675.043 138.301 717.783 138.171 726.443 138.441C728.943 138.521 731.693 139.381 733.823 140.691C740.013 144.501 742.693 151.251 740.933 157.351C739.033 163.991 732.503 168.761 725.243 168.801C721.753 168.821 686.153 168.741 671.843 168.841C664.603 168.891 658.143 174.991 658.103 181.481C658.073 188.071 664.483 193.891 671.793 193.901C680.693 193.901 716.293 193.901 725.193 193.901C733.023 193.901 738.303 189.041 738.943 181.281C739.613 173.211 745.843 167.041 753.893 166.481C760.623 166.011 766.863 159.871 766.843 153.741V130.071C766.843 120.721 759.263 113.131 749.913 113.121L698.013 113.021V113.011Z" fill="#262947"/>
<path d="M872.853 165.511C864.923 165.421 856.993 165.651 849.073 165.511C841.133 165.371 835.403 161.021 835.193 153.341C834.653 134.181 834.873 102.891 834.953 82.8315H874.963C881.833 82.8315 887.403 76.8915 887.403 70.0215C887.403 63.1515 881.833 57.5815 874.963 57.5815H834.643C834.623 47.6215 834.593 30.5015 834.683 22.0615C834.783 12.9515 831.553 5.79147 821.673 5.71147C811.863 5.64147 808.303 12.4915 808.443 21.7615C808.573 30.2615 808.533 47.5915 808.503 57.5715H794.843C787.973 57.5715 782.403 63.1415 782.403 70.0115C782.403 76.8815 787.973 82.8215 794.843 82.8215H808.483C808.513 101.151 808.603 130.741 808.413 148.271C808.303 157.951 811.883 163.371 821.893 165.961C826.663 167.201 832.813 172.541 833.823 177.031C836.503 188.921 841.823 192.891 854.273 192.771L872.513 192.661C872.513 192.661 872.593 192.661 872.633 192.661C881.643 192.631 887.483 187.971 887.563 179.191C887.643 170.411 881.883 165.601 872.873 165.501" fill="#262947"/>
<path d="M157.213 140.42C157.063 132.37 153.833 129.17 145.703 128.99C142.223 128.91 130.463 128.96 128.053 128.94C120.263 128.87 119.073 119.78 119.053 114.37C119.043 112.07 119.073 98.81 119.043 95.63C118.953 86.11 116.403 83.49 107.153 83.43C100.923 83.39 58.5429 83.41 51.5529 83.42C49.5929 83.42 47.4529 82.39 45.6929 80.58C43.6029 78.44 42.3229 75.52 42.3629 72.96C42.4529 66.02 42.4329 58.97 42.4029 52.38C42.3929 50.26 43.4829 47.88 45.3229 46C47.0029 44.29 49.0729 43.27 50.8729 43.27C64.2229 43.23 146.343 43.43 146.343 43.43C149.873 43.48 152.603 42.57 154.453 40.72C156.293 38.89 157.223 36.21 157.223 32.73C157.223 27.25 157.193 12.65 157.223 10.99C157.273 7.42 156.373 4.67 154.543 2.8C152.733 0.949995 150.073 0 146.633 0H50.8829C44.2029 0 40.5129 3.73 40.5129 10.49C40.5129 14.47 40.5829 28.86 40.5829 31.5C40.5829 34.19 39.3429 37.05 37.2429 39.15C35.4629 40.93 33.3029 41.91 31.1629 41.91H31.0829C24.7229 41.84 18.4029 41.87 11.3929 41.92C7.89287 41.94 5.18287 42.91 3.35287 44.79C1.53287 46.65 0.62287 49.35 0.65287 52.81C0.68287 55.76 0.642873 68.54 0.682873 71.99C0.792873 80.79 3.72287 83.8 12.2829 83.92C15.5729 83.96 27.3229 83.92 29.9229 83.95C36.3029 84 40.3729 88.6 40.5329 95.94C40.6029 99.27 40.5029 112.05 40.5029 113.94C40.5029 125.14 42.7529 127.41 53.9029 127.41C59.8829 127.41 95.1229 127.38 106.773 127.45C108.813 127.45 115.463 128.52 115.543 141.64C115.573 146.85 115.563 152.43 115.503 158.72C115.443 165.45 110.403 170.74 104.033 170.77H9.54287C6.65287 170.93 4.52287 171.81 2.90287 173.42C1.07287 175.25 0.13287 177.93 0.13287 181.41C0.13287 185.06 0.0628724 198.79 0.00287235 201.93C-0.0571276 205.43 0.822868 208.16 2.64287 210.04C4.38287 211.84 6.86287 212.77 10.0329 212.77H105.563C108.873 212.76 111.463 211.84 113.233 210.03C115.003 208.22 115.893 205.6 115.863 202.24C115.863 202.24 115.753 189.01 115.843 183.11C115.933 176.58 121.173 171.2 127.523 171.11C132.013 171.05 144.653 171.1 146.473 171.1H146.493C150.003 171.1 152.713 170.15 154.543 168.29C156.363 166.44 157.273 163.75 157.243 160.28C157.223 157.53 157.283 144.28 157.213 140.4" fill="#1439C1"/>
</g>
<defs>
<clipPath id="clip0_46_20">
<rect width="1085.32" height="212.77" fill="white"/>
</clipPath>
</defs>
</svg>
