<?xml version="1.0" encoding="UTF-8"?><svg id="Layer_1" xmlns="http://www.w3.org/2000/svg" xmlns:xlink="http://www.w3.org/1999/xlink" viewBox="0 0 1200 400"><defs><style>.cls-1{fill:url(#linear-gradient);}.cls-2{mask:url(#mask);}.cls-3{filter:url(#luminosity-noclip-2);}.cls-4{fill:#1439c1;}.cls-5{fill:#262947;}</style><filter id="luminosity-noclip-2" x="-65.88" y="-316.56" width="1319.82" height="1031.9" color-interpolation-filters="sRGB" filterUnits="userSpaceOnUse"><feFlood flood-color="#fff" result="bg"/><feBlend in="SourceGraphic" in2="bg"/></filter><linearGradient id="linear-gradient" x1="-94.96" y1="881.13" x2="-93.89" y2="881.13" gradientTransform="translate(-499.36 -3397.6) rotate(-180) scale(4.08 -4.08)" gradientUnits="userSpaceOnUse"><stop offset="0" stop-color="#fff"/><stop offset="1" stop-color="#000"/></linearGradient><mask id="mask" x="-65.88" y="-316.56" width="1319.82" height="1031.9" maskUnits="userSpaceOnUse"><g class="cls-3"><rect class="cls-1" x="250.84" y="-379.38" width="686.38" height="1157.55" transform="translate(208.64 693.46) rotate(-70.6)"/></g></mask></defs><path class="cls-5" d="M517.07,261.43c7.53,.53,16.43-6.89,16.21-16.12-.29-12.18-.13-64.96,0-79.16,.02-2.41,.44-5.03,1.48-7.16,2.57-5.23,8.39-8.04,13.12-6.85,6.16,1.55,10.34,6.87,10.36,13.52l.13,105.43c.17,8.25-6.3,15.37-14.92,15.08-17.25-.6-34.55-.17-51.82-.18-7,0-12.34-4.92-12.95-11.89-.75-8.61-6.31-14.24-14.92-15.13-7.3-.75-12.54-6.41-12.55-13.79-.04-26.62-.04-53.25,0-79.87,.01-7.1,5.94-13.44,12.39-13.52,6.64-.08,12.43,6.27,12.43,13.72,.02,26.39,.42,52.78,0,79.16-.13,8.32,7.26,17.38,16.56,16.74h24.48Z"/><path class="cls-5" d="M669.87,219.83c0-8.8,.09-17.6-.02-26.4-.12-9.07-6.9-15.72-15.85-15.75-8.33-.02-16.66-.03-24.99,0-8.98,.03-15.87,6.78-15.9,15.72-.06,17.6-.06,35.2,0,52.8,.03,8.79,6.81,15.42,15.68,15.46,8.33,.04,16.69-.43,24.98,.14,7.9,.54,16.53-7.27,16.18-16.28-.34-8.55-.07-17.13-.07-25.69m-81.45-106.96c0-6.5,3.65-11.68,9.31-13.4,7.12-2.17,15.17,3.83,15.3,11.62,.15,8.57,.03,17.14,.05,25.71,.03,9.53,6.65,16.2,16.08,16.22,8.22,.01,16.43-.03,24.65,.01,7.63,.04,12.97,5.11,13.53,12.74,.54,7.42,6.75,13.67,14.39,14.51,8.24,.9,12.89,5.96,12.91,14.16,.03,16.9,.03,33.81,0,50.71-.02,7.96-5.29,13.67-13.01,14.24-7.52,.56-13.77,6.84-14.3,14.37-.53,7.53-5.75,12.42-13.31,12.42-17.37,0-34.75,0-52.12,0-8.05,0-13.48-5.49-13.49-13.78,0-.26,.41-158.6,.41-158.6"/><path class="cls-5" d="M1044.99,166.3c.07,8.44-5.44,13.07-14.07,13.16-7.59,.09-15.18-.05-22.77,.09-7.6,.13-13.2,4.23-13.29,11.62-.15,12.26-.39,36.31-.39,36.31,0,14.96,.41,29.92,.39,44.87,0,7.69-6.06,13.83-13.06,13.82-7.07,0-12.55-6.03-12.56-13.88-.02-18.19,.05-69.04-.03-76.26-.1-9.31,3.32-14.52,12.91-17.01,4.57-1.19,10.45-6.32,11.42-10.65,2.24-9.98,7.03-14.66,15.59-15.18,.34-.02,22.88,.18,22.88,.18,7.88,.46,12.92,4.9,12.99,12.92"/><path class="cls-5" d="M380.91,192.58c9.12,.03,15.56,6.07,16.33,15.22,.8,9.62,8.25,17.03,17.8,17.72,7.73,.55,14.84,7.57,14.86,14.65,.02,7.18-7.29,14.37-15.16,14.91-9.42,.66-16.72,7.88-17.51,17.33-.75,9.09-6.94,14.77-16.1,14.78,0,0-59.83,0-62.52,0-8.56,0-16.07-6.83-16.03-14.54,.04-7.6,7.6-14.74,16.08-14.8,16.75-.12,58.43,.02,62.52,0,8.5-.05,16.14-5.68,18.37-13.44,2.05-7.15-1.08-15.05-8.33-19.51-2.5-1.54-5.72-2.55-8.64-2.64-10.13-.32-20.27-.1-30.41-.13-9.75-.02-16.1-5.9-16.85-15.53-.69-8.88-8.52-16.42-17.9-17.27-8.06-.72-14.81-7.33-14.83-14.53-.03-7.24,6.56-13.75,14.78-14.61,10.41-1.09,17.29-8.33,17.98-18.9,.46-7.01,7.22-13.64,14.71-13.7,21.68-.16,43.37-.2,65.05,0,7.78,.07,15.11,7.98,14.79,15.13-.34,7.4-7.7,14.3-15.63,14.33-21.26,.08-42.52-.03-63.79,.05-11.59,.04-20.67,11.52-17.63,22.07,2.14,7.42,9.81,13.31,17.65,13.37l30.41,.03Z"/><path class="cls-5" d="M1127.07,248.44c0,8.9-7.22,16.12-16.11,16.12h-31.13c-8.9,0-16.12-7.22-16.12-16.12v-3.49c0-8.9,7.21-16.12,16.12-16.12h31.13c8.9,0,16.11,7.22,16.11,16.12v3.49Zm-69.94-40.98c-8.39,.05-15.16,6.93-15.05,15.35v24.07c-.02,5.89,4.72,13.26,11.12,13.84,8.53,.78,14.25,6.45,14.94,14.79,.59,7.12,7.26,10.48,14.46,10.48,17.1,0,34.21-.39,51.29,.18,8.04,.27,14.78-6.54,14.55-14.77l-.1-76.59c-.01-8.48-4.55-13.5-12.95-14.44-7.6-.85-13.87-7.21-14.31-14.51-.44-7.33-5.86-12.6-13.19-12.66-8.2-.07-16.4-.04-24.59,0-7.79,.03-13.76,5.49-13.7,12.47,.06,6.77,6.05,12.09,13.69,12.11,8.32,.02,16.64-.14,24.94,.09,2.46,.07,5.15,.75,7.29,1.94,6.2,3.47,9.11,10.13,7.59,16.28-1.55,6.26-8.23,11.49-15.08,11.58-.02,0-.03,0-.05,0l-50.87-.2Z"/><path class="cls-5" d="M761.14,205.8c-6.33-.52-12.33-5.36-14.06-11.37-2.6-9.01,5.16-18.82,15.06-18.85,18.16-.06,36.32,.02,54.48-.04,6.77-.02,13.06-5.91,13.35-12.24,.28-6.11-5.99-12.86-12.63-12.93-18.52-.17-37.04-.15-55.56,0-6.39,.05-12.17,5.72-12.56,11.71-.59,9.03-6.47,15.21-15.36,16.14-7.02,.74-12.65,6.3-12.62,12.48v23.44c0,9.35,7.58,16.94,16.93,16.95,0,0,42.74-.13,51.4,.14,2.5,.08,5.25,.94,7.38,2.25,6.19,3.81,8.87,10.56,7.11,16.66-1.9,6.64-8.43,11.41-15.69,11.45-3.49,.02-39.09-.06-53.4,.04-7.24,.05-13.7,6.15-13.74,12.64-.03,6.59,6.38,12.41,13.69,12.42,8.9,0,44.5,0,53.4,0,7.83,0,13.11-4.86,13.75-12.62,.67-8.07,6.9-14.24,14.95-14.8,6.73-.47,12.97-6.61,12.95-12.74v-23.67c0-9.35-7.58-16.94-16.93-16.95l-51.9-.1Z"/><path class="cls-5" d="M935.98,258.3c-7.93-.09-15.86,.14-23.78,0-7.94-.14-13.67-4.49-13.88-12.17-.54-19.16-.32-50.45-.24-70.51h40.01c6.87,0,12.44-5.94,12.44-12.81s-5.57-12.44-12.44-12.44h-40.32c-.02-9.96-.05-27.08,.04-35.52,.1-9.11-3.13-16.27-13.01-16.35-9.81-.07-13.37,6.78-13.23,16.05,.13,8.5,.09,25.83,.06,35.81h-13.66c-6.87,0-12.44,5.57-12.44,12.44s5.57,12.81,12.44,12.81h13.64c.03,18.33,.12,47.92-.07,65.45-.11,9.68,3.47,15.1,13.48,17.69,4.77,1.24,10.92,6.58,11.93,11.07,2.68,11.89,8,15.86,20.45,15.74l18.24-.11s.08,0,.12,0c9.01-.03,14.85-4.69,14.93-13.47,.08-8.78-5.68-13.59-14.69-13.69"/><g class="cls-2"><path class="cls-4" d="M220.34,233.21c-.15-8.05-3.38-11.25-11.51-11.43-3.48-.08-15.24-.03-17.65-.05-7.79-.07-8.98-9.16-9-14.57-.01-2.3,.02-15.56-.01-18.74-.09-9.52-2.64-12.14-11.89-12.2-6.23-.04-48.61-.02-55.6-.01h0c-1.96,0-4.1-1.03-5.86-2.84-2.09-2.14-3.37-5.06-3.33-7.62,.09-6.94,.07-13.99,.04-20.58-.01-2.12,1.08-4.5,2.92-6.38,1.68-1.71,3.75-2.73,5.55-2.73,13.35-.04,95.47,.16,95.47,.16,3.53,.05,6.26-.86,8.11-2.71,1.84-1.83,2.77-4.51,2.77-7.99,0-5.48-.03-20.08,0-21.74,.05-3.57-.85-6.32-2.68-8.19-1.81-1.85-4.47-2.8-7.91-2.8H114.01c-6.68,0-10.37,3.73-10.37,10.49,0,3.98,.07,18.37,.07,21.01,0,2.69-1.24,5.55-3.34,7.65-1.78,1.78-3.94,2.76-6.08,2.76h-.08c-6.36-.07-12.68-.04-19.69,.01-3.5,.02-6.21,.99-8.04,2.87-1.82,1.86-2.73,4.56-2.7,8.02,.03,2.95-.01,15.73,.03,19.18,.11,8.8,3.04,11.81,11.6,11.93,3.29,.04,15.04,0,17.64,.03,6.38,.05,10.45,4.65,10.61,11.99,.07,3.33-.03,16.11-.03,18,0,11.2,2.25,13.47,13.4,13.47,5.98,0,41.22-.03,52.87,.04,2.04,0,8.69,1.07,8.77,14.19,.03,5.21,.02,10.79-.04,17.08-.06,6.73-5.1,12.02-11.47,12.05H72.67c-2.89,.16-5.02,1.04-6.64,2.65-1.83,1.83-2.77,4.51-2.77,7.99,0,3.65-.07,17.38-.13,20.52-.06,3.5,.82,6.23,2.64,8.11,1.74,1.8,4.22,2.73,7.39,2.73h95.53c3.31-.01,5.9-.93,7.67-2.74,1.77-1.81,2.66-4.43,2.63-7.79,0,0-.11-13.23-.02-19.13,.09-6.53,5.33-11.91,11.68-12,4.49-.06,17.13-.01,18.95-.01h.02c3.51,0,6.22-.95,8.05-2.81,1.82-1.85,2.73-4.54,2.7-8.01-.02-2.75,.04-16-.03-19.88"/></g></svg>